:SAMPLES-PER-SECOND 30
:FULLY-SPECIFIED
:DEGREES
1398
root  14.6731 40.622 10.136 159.464 85.2105 162.459
RightUpLeg  3.57867 -11.9782 -12.5747
RightLeg  6.46223 -12.3191 2.57129
RightFoot  -1.37949 -0.356645 4.00099
RightToes  0.000481921 0.542163 -0.142578
Spine  -0.264616 -0.700367 -2.44102
Spine1  10.7089 -2.13756 5.4818
HEad  14.5579 -0.634252 -0.285223
LeftShoulder1  8.84535 -12.5554 -48.0776
LeftArm  -5.13019 25.4553 -25.5624
LeftForeArm  172.244 -50.9937 -167.712
LeftHand  -0.25398 0.0180481 5.50724
RightShoulder  4.40046 7.23461 35.0146
RightArm  -0.443277 -27.9409 38.9781
RightForeArm  158.511 45.9631 168.722
RightHand  -0.598901 -0.195837 -13.3699
LeftUpLeg  2.91003 7.41611 8.77655
LeftLeg  0.686085 10.4467 -3.22254
LeftFoot  3.26301 0.742519 -6.12187
LeftToes  1.06245e-005 4.65869e-005 -8.65517e-006
1399
root  14.6462 40.6174 10.1498 160.067 84.993 163.118
RightUpLeg  3.59185 -12.0283 -12.6043
RightLeg  6.60706 -12.4758 2.55724
RightFoot  -1.46693 -0.355456 3.98916
RightToes  0.000481921 0.542163 -0.142578
Spine  -0.290781 -0.773916 -2.62042
Spine1  10.7911 -2.2429 5.58151
HEad  14.5642 -0.685066 -0.16057
LeftShoulder1  8.83598 -12.5643 -47.9992
LeftArm  -5.36081 25.0514 -25.482
LeftForeArm  172.186 -51.061 -167.679
LeftHand  -0.25398 0.0180481 5.50724
RightShoulder  4.41475 7.27538 34.9927
RightArm  -0.374972 -27.7461 38.6002
RightForeArm  158.751 46.3902 168.581
RightHand  -0.588118 -0.278429 -13.3297
LeftUpLeg  2.84173 7.40627 8.76599
LeftLeg  0.75291 10.2429 -3.2044
LeftFoot  3.30069 0.738625 -6.07531
LeftToes  1.06245e-005 4.65869e-005 -8.65517e-006
1400
root  14.6153 40.6117 10.162 160.107 84.8805 163.24
RightUpLeg  3.57083 -12.0386 -12.6107
RightLeg  6.79481 -12.5593 2.48281
RightFoot  -1.56914 -0.35436 3.97994
RightToes  0.000481921 0.542163 -0.142578
Spine  -0.294811 -0.777384 -2.73148
Spine1  10.8665 -2.23737 5.55377
HEad  14.7486 -0.953258 0.0158348
LeftShoulder1  8.80634 -12.5402 -47.9088
LeftArm  -5.41681 24.7287 -25.3054
LeftForeArm  172.435 -51.1059 -167.679
LeftHand  -0.25398 0.0180481 5.50724
RightShoulder  4.41885 7.27284 35.0397
RightArm  -0.438319 -27.2194 38.0403
RightForeArm  159.224 47.0273 168.375
RightHand  -0.551923 -0.467416 -12.9646
LeftUpLeg  2.82753 7.42563 8.77278
LeftLeg  0.815689 10.0968 -3.22063
LeftFoot  3.32186 0.736233 -6.04947
LeftToes  1.06245e-005 4.65869e-005 -8.65517e-006
1401
root  14.5778 40.6056 10.1703 159.875 84.8447 163.132
RightUpLeg  3.5589 -12.0572 -12.6214
RightLeg  6.99628 -12.5555 2.4044
RightFoot  -1.66774 -0.353008 3.96813
RightToes  0.000481921 0.542163 -0.142578
Spine  -0.280492 -0.739842 -2.80063
Spine1  10.9862 -2.15505 5.39071
HEad  14.9118 -1.32913 0.256885
LeftShoulder1  8.74956 -12.5049 -47.7019
LeftArm  -5.44363 24.5367 -25.3417
LeftForeArm  172.59 -51.1449 -167.673
LeftHand  -0.25398 0.0180481 5.50724
RightShoulder  4.39904 7.22375 35.0423
RightArm  -0.7515 -26.0071 37.3486
RightForeArm  159.861 47.9291 168.073
RightHand  -0.518192 -0.647536 -12.6133
LeftUpLeg  2.84378 7.44343 8.78027
LeftLeg  0.921373 10.0221 -3.21608
LeftFoot  3.31942 0.735831 -6.0518
LeftToes  1.06245e-005 4.65869e-005 -8.65517e-006
1402
root  14.5335 40.5991 10.1744 159.579 84.8302 162.986
RightUpLeg  3.57425 -12.1645 -12.6934
RightLeg  7.18355 -12.438 2.40137
RightFoot  -1.73158 -0.349892 3.92933
RightToes  0.000481921 0.542163 -0.142578
Spine  -0.300103 -0.718598 -2.88652
Spine1  11.1989 -2.08531 5.19384
HEad  14.936 -1.7136 0.587737
LeftShoulder1  8.69845 -12.4917 -47.4587
LeftArm  -5.54639 24.546 -25.6004
LeftForeArm  172.493 -51.1562 -167.662
LeftHand  -0.25398 0.0180481 5.50724
RightShoulder  4.34583 7.15529 34.81
RightArm  -1.30949 -23.7601 36.6466
RightForeArm  159.745 49.3275 167.507
RightHand  -0.527071 -0.618577 -12.7536
LeftUpLeg  2.84429 7.44556 8.76732
LeftLeg  1.09936 10.009 -3.17448
LeftFoot  3.30649 0.733221 -6.01655
LeftToes  1.06245e-005 4.65869e-005 -8.65517e-006
1403
root  14.482 40.5928 10.1717 159.09 84.8415 162.639
RightUpLeg  3.57414 -12.3403 -12.8198
RightLeg  7.35272 -12.2186 2.45705
RightFoot  -1.75246 -0.345029 3.86283
RightToes  0.000481921 0.542163 -0.142578
Spine  -0.392482 -0.720284 -2.89902
Spine1  11.4598 -2.01252 4.90194
HEad  14.9747 -2.16468 1.04886
LeftShoulder1  8.71126 -12.556 -47.3365
LeftArm  -5.65915 24.7775 -25.7589
LeftForeArm  172.454 -51.1606 -167.657
LeftHand  -0.25398 0.0180481 5.50724
RightShoulder  4.26557 7.07613 34.3625
RightArm  -2.06099 -20.2479 36.1444
RightForeArm  157.564 51.5958 166.372
RightHand  -0.603143 -0.278266 -13.6556
LeftUpLeg  2.82795 7.45852 8.74039
LeftLeg  1.29059 10.0268 -3.15338
LeftFoot  3.2957 0.728139 -5.93942
LeftToes  1.06245e-005 4.65869e-005 -8.65517e-006
